<?xml version="1.0" standalone="no"?>
<!DOCTYPE svg PUBLIC "-//W3C//DTD SVG 20010904//EN"
 "http://www.w3.org/TR/2001/REC-SVG-20010904/DTD/svg10.dtd">
<svg version="1.0" xmlns="http://www.w3.org/2000/svg"
 width="626.000000pt" height="458.000000pt" viewBox="0 0 626.000000 458.000000"
 preserveAspectRatio="xMidYMid meet">

<g transform="translate(0.000000,458.000000) scale(0.100000,-0.100000)"
fill="#000000" stroke="none">
<path d="M0 2290 l0 -2290 3130 0 3130 0 0 895 0 895 -32 1 -33 1 33 9 32 10
0 628 0 628 -87 7 c-195 14 -335 55 -528 152 -239 121 -426 337 -513 591 -46
134 -53 322 -17 458 18 71 73 189 115 252 17 24 30 46 30 49 0 2 -373 4 -829
4 l-829 0 -6 -26 c-5 -17 -2 -32 9 -43 20 -23 19 -31 -5 -31 -12 0 -31 -11
-44 -25 -26 -28 -32 -31 -33 -12 0 6 -4 24 -8 39 -5 21 -2 29 14 40 12 7 21
23 21 35 0 23 -1 23 -143 23 l-142 0 -17 -32 c-9 -18 -18 -42 -20 -52 -7 -45
-127 -41 -188 6 -19 15 -33 18 -63 12 -53 -8 -90 11 -82 43 5 22 3 23 -54 23
-50 0 -59 -3 -64 -20 -3 -11 -10 -20 -17 -20 -7 0 -14 9 -17 20 -5 20 -14 20
-458 20 l-453 0 -7 -30 c-5 -21 -13 -30 -26 -30 -13 0 -24 10 -30 30 l-11 30
-879 0 -879 0 0 -2290z m3352 2223 c42 -38 1 -80 -47 -49 -28 19 -29 20 -15
47 13 23 37 24 62 2z m-119 -224 c43 -37 46 -49 13 -49 -35 0 -56 10 -56 26 0
8 -7 17 -15 20 -8 4 -15 12 -15 20 0 24 35 15 73 -17z m185 -109 c10 -16 23
-20 73 -20 34 0 79 5 99 11 35 11 44 9 114 -25 42 -19 76 -40 76 -46 0 -6 -25
-21 -56 -35 -46 -20 -55 -28 -49 -42 14 -33 26 -116 21 -138 -3 -12 -14 -32
-25 -44 -19 -21 -23 -22 -71 -12 -28 6 -60 11 -71 11 -24 0 -37 -29 -18 -40 7
-5 10 -13 5 -17 -5 -4 -11 -2 -13 5 -3 6 -13 12 -24 12 -12 0 -19 7 -19 19 0
10 -6 19 -12 18 -7 0 -22 1 -33 2 -19 1 -19 2 -2 12 9 5 22 7 27 4 6 -3 0 10
-11 30 -12 20 -28 39 -36 42 -24 9 -14 51 22 87 19 20 35 39 35 44 0 15 -41
62 -54 62 -7 0 -20 6 -30 13 -15 11 -16 17 -5 40 14 32 39 35 57 7z m-531 -32
c14 -13 23 -33 23 -50 0 -36 46 -107 74 -113 12 -2 41 -7 66 -10 56 -8 150
-53 150 -72 0 -10 -6 -12 -20 -8 -11 3 -27 2 -35 -3 -12 -6 23 -21 127 -52 79
-24 152 -43 163 -44 11 0 22 -3 25 -7 3 -3 66 -25 140 -48 74 -22 236 -72 360
-111 124 -38 360 -111 525 -161 165 -50 307 -95 316 -99 8 -5 50 -65 93 -134
43 -69 82 -126 88 -126 5 0 6 -5 2 -12 -5 -7 -2 -9 9 -5 12 4 14 2 10 -10 -6
-14 -1 -13 23 4 16 11 40 26 54 32 l25 12 -25 -23 c-14 -13 -37 -30 -50 -39
l-25 -16 38 -56 c20 -31 37 -59 37 -62 0 -3 -17 -5 -37 -5 -41 0 -40 -2 -226
300 l-52 84 -175 54 c-484 147 -898 266 -928 266 -22 0 -29 2 -20 9 9 6 6 7
-10 4 -12 -3 -20 -2 -18 2 3 4 -123 46 -280 93 l-285 86 -245 -80 c-159 -52
-242 -83 -237 -90 4 -7 0 -9 -9 -5 -9 3 -42 -3 -74 -13 l-59 -18 47 -1 c28 -1
48 4 51 12 4 9 7 9 15 -1 7 -10 19 -9 61 8 34 13 75 20 121 20 78 0 100 -6
100 -27 0 -22 94 -12 148 16 46 24 88 27 94 9 6 -16 91 -15 96 1 2 7 29 11 67
11 l63 0 12 -35 c10 -32 9 -37 -14 -60 -33 -33 -32 -36 3 -74 29 -31 30 -34
27 -124 -2 -77 -5 -92 -19 -95 -24 -5 -21 -22 3 -22 11 0 20 5 20 11 0 6 12 9
27 7 22 -2 28 2 35 27 4 17 5 39 2 50 -4 15 -3 16 4 6 7 -10 12 -3 17 28 7 40
25 58 25 24 0 -10 3 -29 5 -43 4 -19 4 -21 -3 -6 -6 15 -11 6 -21 -38 -7 -32
-11 -60 -8 -62 3 -3 8 13 12 35 4 23 11 41 16 41 5 0 9 -5 9 -11 0 -8 4 -8 14
0 9 8 17 43 21 95 7 86 -2 125 -39 155 -20 17 -21 41 -2 41 8 0 16 5 18 11 5
16 104 -6 126 -28 10 -10 29 -43 42 -73 14 -30 30 -59 37 -63 23 -15 14 -37
-14 -37 -40 -1 -58 -19 -60 -62 -2 -35 11 -52 19 -26 4 12 48 22 48 10 -1 -4
-7 -18 -15 -32 -22 -38 -17 -49 5 -14 19 29 22 30 65 24 49 -7 65 -17 50 -28
-6 -4 -16 -19 -22 -33 -10 -24 -9 -26 10 -26 62 1 68 -2 55 -23 -12 -18 -13
-19 -20 -2 -4 11 -6 5 -5 -15 1 -18 3 -33 4 -33 1 0 12 18 24 40 13 22 26 40
29 40 4 0 7 -24 6 -52 -1 -45 2 -53 17 -50 9 2 17 -2 17 -8 0 -5 -4 -10 -10
-10 -5 0 -9 -6 -7 -12 1 -7 -4 -12 -11 -10 -8 1 -11 -2 -6 -9 5 -8 16 -1 35
22 29 35 38 55 17 43 -7 -4 -8 -3 -4 5 4 6 11 9 16 6 5 -3 11 -1 15 5 3 5 11
10 16 10 6 0 -3 -19 -20 -43 -21 -31 -29 -53 -27 -80 1 -32 0 -35 -11 -21 -10
14 -15 15 -27 5 -11 -10 -16 -9 -25 6 -6 10 -11 13 -11 5 0 -7 9 -23 21 -35
13 -15 18 -17 14 -6 -8 22 9 33 24 15 7 -8 21 -12 34 -8 22 5 22 5 3 -16 -10
-11 -16 -25 -15 -30 2 -5 14 6 26 25 13 19 18 31 11 27 -7 -4 -8 -3 -4 5 4 6
11 9 15 7 4 -3 21 13 37 34 27 36 44 50 44 34 0 -4 -25 -37 -55 -75 -35 -43
-53 -73 -49 -83 3 -9 -1 -27 -10 -41 -9 -13 -16 -38 -16 -55 0 -16 -4 -30 -9
-30 -5 0 -19 -16 -32 -36 -18 -30 -20 -40 -11 -55 16 -24 15 -46 0 -52 -32
-11 -165 5 -203 26 -28 15 -64 22 -123 25 l-84 5 6 59 c9 73 -4 87 -81 88 -28
0 -55 5 -58 10 -3 6 -21 10 -40 10 -19 0 -37 -4 -40 -10 -3 -5 -17 -10 -31
-10 -18 0 -24 -5 -24 -22 0 -41 14 -51 59 -43 23 4 39 11 35 16 -9 15 23 10
40 -6 8 -8 22 -15 30 -15 20 0 23 -79 4 -82 -7 -1 50 -4 127 -7 132 -6 142 -8
182 -35 61 -40 93 -109 94 -200 1 -51 3 -64 9 -46 8 25 8 25 10 -5 2 -24 4
-26 7 -7 4 18 11 22 44 22 37 0 39 -2 39 -31 0 -16 4 -28 9 -25 5 4 12 0 14
-6 3 -7 6 65 6 160 l1 174 143 -4 c136 -3 146 -4 184 -30 59 -39 76 -83 81
-207 5 -114 -5 -164 -42 -208 -16 -19 -21 -34 -16 -47 6 -18 7 -18 13 -2 4 10
5 21 2 26 -3 4 3 6 14 3 15 -4 18 0 14 20 -3 14 1 28 7 32 9 5 10 1 5 -16 -7
-21 -6 -22 7 -11 14 11 17 8 27 -19 6 -18 11 -58 11 -90 l0 -59 36 0 c55 0 64
-16 64 -118 0 -60 -4 -92 -12 -94 -18 -6 1 -28 25 -29 12 0 31 -5 42 -10 15
-7 10 -8 -22 -6 l-42 2 2 -38 c2 -33 -1 -40 -30 -57 -37 -22 -39 -28 -18 -56
21 -28 18 -43 -10 -54 -14 -5 -25 -17 -26 -27 0 -11 -6 -6 -15 15 -8 17 -19
32 -24 32 -10 0 -12 -5 -15 -51 -3 -46 -35 -72 -35 -29 0 11 5 20 11 20 8 0 9
12 4 37 -9 50 -14 56 -32 42 -12 -10 -16 -10 -24 2 -8 10 -9 8 -4 -9 5 -17 -1
-29 -24 -51 -21 -20 -31 -38 -31 -59 0 -16 -9 -51 -21 -77 -20 -45 -23 -47
-52 -41 -36 7 -61 26 -34 26 9 0 17 5 17 11 0 5 5 7 11 3 19 -11 -7 29 -36 56
-17 16 -25 19 -23 10 2 -11 -5 -14 -27 -11 -16 1 -31 6 -33 11 -11 30 -31 43
-55 36 -25 -6 -39 -36 -17 -36 12 0 13 -30 1 -49 -8 -12 -13 -12 -35 2 -36 24
-58 22 -54 -5 2 -15 10 -23 23 -23 12 0 34 -18 54 -44 26 -33 36 -41 40 -29 4
11 12 13 26 7 16 -6 17 -8 3 -8 -22 -1 -33 -20 -19 -34 6 -6 11 -18 11 -26 0
-10 -10 -5 -27 15 -16 16 -25 25 -20 20 11 -15 8 -26 -7 -26 -10 0 -13 9 -11
28 2 20 -4 38 -21 58 -14 16 -23 23 -19 17 3 -7 2 -13 -3 -13 -5 0 -14 -12
-20 -26 -8 -16 -16 -22 -25 -17 -7 4 -6 -2 4 -17 45 -72 61 -102 56 -106 -3
-3 -13 6 -22 20 -10 14 -22 23 -28 19 -6 -3 -7 -1 -3 5 8 14 -23 64 -34 57 -5
-3 -11 -1 -15 5 -3 5 -2 10 4 10 6 0 8 7 4 16 -4 11 -8 12 -13 4 -4 -6 -32
-14 -63 -17 l-56 -6 5 37 c3 27 1 36 -10 36 -18 0 -22 -6 -30 -52 -6 -33 -5
-36 14 -31 11 3 20 0 20 -6 0 -6 9 -11 19 -11 12 0 24 -12 32 -32 7 -18 15
-37 17 -43 3 -5 -7 1 -21 14 -21 19 -29 21 -40 13 -8 -7 -16 -9 -20 -6 -3 3
-3 -3 0 -15 3 -11 10 -18 16 -14 5 3 7 1 4 -5 -4 -5 2 -31 13 -58 11 -26 18
-49 15 -52 -8 -8 -11 -2 -44 68 -19 42 -30 57 -30 43 -1 -16 -5 -21 -17 -16
-12 5 -15 15 -11 45 5 35 1 42 -40 81 -44 42 -45 44 -27 62 19 18 18 19 -1 11
-11 -5 -51 -19 -90 -32 -54 -18 -63 -23 -40 -24 20 0 36 -9 49 -27 19 -26 19
-26 0 -42 -11 -9 -27 -32 -36 -51 -13 -27 -18 -30 -19 -15 -1 14 -4 10 -9 -10
l-8 -30 -1 31 c0 17 -6 46 -13 64 -10 29 -9 35 8 48 18 14 18 14 -6 8 -14 -3
-31 -6 -38 -6 -7 0 -10 -4 -7 -10 3 -5 0 -10 -7 -10 -7 0 -2 -9 12 -20 25 -19
25 -19 5 -34 -11 -9 -29 -16 -40 -16 -11 0 -27 -4 -35 -10 -9 -5 -19 -5 -27 2
-17 14 -17 95 0 101 6 3 -15 6 -49 6 -34 1 -83 3 -110 6 -38 3 -42 2 -19 -4
27 -8 28 -9 6 -10 -14 0 -32 5 -40 13 -21 18 -71 29 -71 16 0 -13 -12 -13 -47
1 -22 8 -24 12 -13 19 8 6 10 10 5 10 -6 0 -16 -5 -22 -11 -9 -9 -22 -8 -52 4
-33 14 -42 14 -53 3 -13 -13 -113 -28 -122 -18 -3 2 -1 13 4 23 22 40 -45 60
-87 26 -9 -6 -13 -6 -13 0 0 6 -22 15 -49 20 -40 8 -50 7 -59 -6 -7 -12 -13
-13 -21 -5 -9 8 -6 15 13 28 15 9 26 23 26 31 0 8 5 15 11 15 11 0 2 41 -11
50 -4 3 -11 28 -14 55 -9 63 -19 80 -41 71 -13 -4 -15 -12 -10 -29 3 -12 9
-45 11 -73 4 -43 2 -53 -13 -58 -15 -6 -15 -8 -3 -16 11 -7 11 -10 2 -10 -7 0
-28 -16 -46 -36 l-34 -37 -13 24 c-10 20 -10 22 2 12 24 -20 65 26 85 96 5 21
4 22 -9 10 -8 -8 -12 -18 -9 -24 3 -5 1 -7 -3 -2 -11 10 -46 -23 -38 -36 3 -5
2 -7 -4 -4 -5 3 -25 -9 -43 -28 -19 -19 -39 -35 -44 -35 -6 0 16 27 49 61 33
33 52 57 43 53 -10 -3 -18 -1 -18 4 0 6 9 9 20 7 24 -5 27 17 5 35 -16 13 -35
6 -35 -15 0 -18 -27 -26 -39 -11 -8 10 -4 16 17 27 15 7 29 14 31 16 2 1 -4 9
-12 18 -9 8 -14 22 -11 30 4 8 -10 24 -36 41 l-42 28 7 96 c3 52 11 100 17
107 6 7 21 10 38 7 15 -4 30 -1 34 4 8 13 -23 31 -49 29 -14 -1 -21 5 -23 21
-2 12 1 22 7 22 6 0 11 -7 11 -15 0 -9 6 -12 15 -9 9 4 15 19 15 41 0 37 15
73 30 73 5 0 11 -51 13 -112 1 -62 4 66 5 285 l2 397 185 0 185 0 0 -70 0 -70
-117 -2 c-109 -2 -111 -2 -30 -5 48 -2 87 -6 87 -9 0 -18 -24 -44 -41 -44 -11
0 -29 -9 -41 -20 -13 -12 -36 -20 -55 -20 l-33 0 0 -55 0 -55 80 0 c67 0 80
-3 80 -16 0 -14 3 -14 16 -4 8 7 14 23 12 34 -4 34 10 46 55 46 23 0 49 5 57
10 13 8 16 -26 20 -278 l5 -287 3 423 2 422 185 0 185 0 0 -70 0 -70 -115 0
-115 0 0 -105 0 -105 43 2 42 1 -37 4 -38 4 0 95 0 94 75 0 c58 0 77 -4 81
-15 6 -15 73 -22 75 -7 0 4 1 44 2 89 2 64 -1 84 -12 88 -8 3 -96 5 -195 5
-301 -1 -272 -4 -290 32 -27 54 -19 112 23 157 10 11 10 16 2 19 -6 2 -8 8 -5
14 4 5 -4 5 -16 -2 -15 -8 -19 -14 -11 -19 7 -4 -10 -8 -36 -9 l-48 -2 30 25
c17 14 26 25 20 24 -30 -4 -35 3 -35 46 0 29 4 45 13 46 6 0 3 4 -8 9 -11 4
-33 5 -48 2 -27 -4 -28 -3 -25 24 2 16 9 29 16 29 6 0 12 3 12 8 1 13 -53 107
-58 102 -3 -2 0 -11 6 -18 7 -8 9 -17 5 -20 -3 -4 -2 -7 4 -7 5 0 15 -11 21
-24 11 -26 5 -37 -29 -49 -18 -6 -39 28 -39 63 0 16 -35 38 -45 28 -7 -7 66
-112 93 -135 14 -12 23 -26 18 -30 -4 -4 -12 0 -17 10 -6 9 -14 15 -19 12 -4
-3 -22 18 -40 45 -18 28 -34 50 -35 50 -2 0 -9 -16 -15 -36 -10 -30 -9 -38 5
-54 9 -10 24 -16 34 -13 11 3 22 0 25 -6 4 -6 2 -11 -3 -11 -6 0 -11 -7 -11
-15 0 -27 -52 -18 -76 13 -12 15 -26 24 -30 20 -4 -5 1 -17 11 -28 10 -11 15
-23 11 -27 -4 -5 -12 0 -17 10 -6 9 -17 17 -24 17 -8 0 -15 6 -15 14 0 21 -40
46 -72 46 -18 0 -28 5 -28 15 0 10 -10 15 -34 15 -24 0 -36 5 -40 18 -3 9 -26
30 -51 45 -40 26 -48 27 -77 17 -24 -9 -41 -9 -60 -1 -57 22 -18 71 65 84 22
3 37 2 37 -4 0 -6 7 -3 16 5 8 9 19 16 24 16 5 0 12 20 15 45 6 36 3 49 -14
71 -20 25 -20 28 -5 46 10 10 29 18 43 18 16 0 22 3 15 10 -9 9 -117 -19 -224
-59 -45 -17 -48 -20 -20 -16 l35 5 -30 -15 c-16 -8 -41 -14 -55 -14 -23 0 -23
1 -5 9 13 5 15 9 5 9 -8 0 -91 -26 -184 -57 l-169 -57 -107 -185 -108 -185
-42 -3 c-37 -3 -40 -1 -32 15 6 10 43 74 83 143 39 69 92 160 116 202 l44 78
344 112 c189 62 342 115 339 119 -2 4 2 7 9 6 44 -1 55 4 50 23 -6 23 17 36
45 25 15 -6 14 -8 -7 -16 -13 -5 -22 -11 -20 -14 3 -2 69 17 147 42 93 30 138
49 130 55 -8 5 -4 7 12 3 16 -4 124 27 312 89 248 82 291 94 319 86 18 -5 35
-8 37 -6 2 3 -15 10 -38 17 -33 10 -46 10 -61 1 -11 -7 -32 -10 -47 -6 -21 4
-24 3 -12 -5 11 -8 4 -11 -32 -11 -58 0 -92 29 -84 71 4 21 0 29 -20 38 -33
15 -27 31 17 47 31 11 32 13 9 14 -23 1 -23 2 -5 10 14 6 -6 9 -60 9 -94 1
-155 10 -155 22 0 5 8 9 17 9 15 0 14 2 -2 14 -18 13 -17 15 20 21 22 3 56 13
75 20 47 19 118 11 147 -17z m223 -22 c0 -7 -9 -21 -20 -31 -15 -14 -17 -22
-9 -37 12 -22 -3 -48 -28 -48 -19 0 -28 27 -13 44 8 11 8 20 1 35 -15 27 -14
58 2 64 18 6 67 -13 67 -27z m-475 -155 c6 -4 46 -9 90 -10 44 -2 82 -4 84 -6
12 -13 -18 -25 -62 -25 -41 0 -55 -4 -65 -20 -11 -19 -23 -20 -195 -20 -149 0
-192 3 -233 18 -46 16 -49 19 -35 33 28 27 53 33 186 39 132 7 212 4 230 -9z
m-485 -12 c27 -6 48 -15 44 -20 -8 -14 -167 -12 -162 3 2 6 14 12 26 13 12 1
25 5 29 8 8 9 3 9 63 -4z m1130 -49 c0 -40 -3 -48 -15 -44 -8 4 -15 9 -16 13
0 3 -3 17 -5 31 -6 32 2 50 21 50 11 0 15 -12 15 -50z m-17 -227 c-13 -2 -35
-2 -50 0 -16 2 -5 4 22 4 28 0 40 -2 28 -4z m-978 -13 c-11 -5 -27 -9 -35 -9
-9 0 -8 4 5 9 11 5 27 9 35 9 9 0 8 -4 -5 -9z m1065 -225 c0 -8 -4 -15 -10
-15 -5 0 -10 7 -10 15 0 8 5 15 10 15 6 0 10 -7 10 -15z m1887 -10 c9 -20 8
-25 -3 -25 -8 0 -14 4 -14 9 0 5 -3 16 -6 25 -10 26 10 18 23 -9z m-262 -145
c-3 -5 -12 -10 -18 -10 -7 0 -6 4 3 10 19 12 23 12 15 0z m355 -10 c0 -5 -4
-10 -10 -10 -5 0 -10 5 -10 10 0 6 5 10 10 10 6 0 10 -4 10 -10z m-1572 -14
c-7 -8 -15 -12 -17 -11 -5 6 10 25 20 25 5 0 4 -6 -3 -14z m1362 -41 c0 -8
-82 -47 -87 -41 -3 3 14 15 38 26 49 22 49 22 49 15z m-2720 -36 c0 -6 -4 -7
-10 -4 -5 3 -10 11 -10 16 0 6 5 7 10 4 6 -3 10 -11 10 -16z m2441 -26 c13
-15 11 -16 -13 -11 -37 7 -56 -5 -37 -25 8 -9 23 -27 34 -41 11 -15 26 -33 33
-41 21 -23 -5 -18 -28 5 -11 11 -20 23 -20 28 0 4 -16 24 -36 45 -36 38 -35
42 16 50 14 2 28 5 31 6 4 0 13 -6 20 -16z m-2461 -87 c0 -6 -7 -1 -15 10 -8
10 -15 23 -15 28 0 6 7 1 15 -10 8 -10 15 -23 15 -28z m-186 -5 c-2 -3 19 -29
48 -58 28 -29 49 -55 47 -58 -7 -6 -129 103 -129 115 0 5 9 8 20 7 10 -1 17
-3 14 -6z m1891 -53 c-65 -77 -87 -100 -92 -94 -7 7 96 126 109 126 5 0 -2
-15 -17 -32z m-1920 -68 c4 -6 12 -7 18 -4 7 4 9 4 6 0 -4 -4 -3 -22 1 -41 6
-24 4 -39 -7 -52 -13 -16 -13 -16 -3 5 11 23 11 23 -14 7 -17 -11 -32 -14 -48
-9 -13 4 -26 7 -29 7 -15 -4 -1 71 16 83 22 16 51 18 60 4z m2007 -7 c26 -23
23 -59 -7 -79 -23 -15 -27 -15 -50 0 -32 21 -33 59 -3 80 28 20 37 20 60 -1z
m-230 -108 c0 -5 -5 -11 -11 -13 -6 -2 -11 4 -11 13 0 9 5 15 11 13 6 -2 11
-8 11 -13z m-3421 -107 c46 -13 106 -68 125 -114 8 -18 14 -65 14 -104 l0 -70
-70 0 -70 0 0 63 c0 71 -18 100 -65 100 -14 0 -35 -9 -45 -18 -19 -17 -20 -32
-20 -273 0 -283 2 -292 63 -292 52 0 67 23 67 107 l0 73 70 0 70 0 0 -83 c0
-102 -24 -156 -89 -202 -37 -26 -51 -30 -111 -30 -60 0 -73 4 -112 30 -23 17
-53 49 -65 70 -22 39 -23 49 -23 319 0 263 1 282 21 323 43 88 143 131 240
101z m547 -7 c48 -25 87 -66 106 -113 13 -30 16 -84 16 -290 0 -146 -5 -269
-11 -291 -22 -79 -111 -147 -194 -147 -83 0 -172 68 -194 147 -14 50 -14 516
0 566 31 113 176 180 277 128z m612 -61 l0 -70 -115 0 -115 0 0 -105 0 -105
85 0 85 0 0 -70 0 -70 -85 0 -85 0 0 -175 0 -175 -65 0 -65 0 0 420 0 420 180
0 180 0 0 -70z m479 0 l2 -70 -120 0 -121 0 0 -105 0 -105 85 0 85 0 0 -70 0
-70 -84 0 -84 0 -1 -94 c-1 -97 10 -126 44 -112 27 10 16 -19 -15 -37 -33 -20
-38 -38 -15 -57 35 -29 0 -71 -59 -68 l-41 1 45 7 c43 7 42 7 -22 8 l-68 2 0
420 0 420 183 0 184 0 2 -70z m2631 5 l0 -64 -112 -3 -113 -3 -1 -107 0 -108
83 0 83 0 0 -70 0 -70 -80 0 -80 0 0 -105 0 -105 63 -2 c66 -2 108 -4 145 -6
20 -2 22 -7 22 -67 l0 -65 -185 0 -185 0 0 413 c0 228 3 417 7 420 3 4 84 7
180 7 l173 0 0 -65z m435 43 c7 -31 135 -800 135 -810 0 -5 -30 -8 -67 -6
l-68 3 -14 93 -14 92 -63 0 c-70 0 -66 6 -79 -105 -11 -88 -8 -85 -86 -85 -62
0 -70 2 -65 18 3 9 14 69 25 132 44 269 112 666 116 678 3 8 30 12 89 12 81 0
86 -1 91 -22z m397 -120 l3 -141 73 141 73 142 65 0 c36 0 64 -4 64 -10 0 -5
-37 -83 -82 -173 l-81 -164 96 -236 c54 -130 97 -240 97 -246 0 -7 -28 -11
-72 -11 l-73 0 -64 166 -64 166 -18 -34 c-15 -27 -18 -58 -19 -165 l0 -133
-65 0 -65 0 0 420 0 420 65 0 64 0 3 -142z m-3552 -21 c0 -7 10 -17 23 -22 25
-11 33 -45 17 -74 -13 -26 -40 -27 -40 -2 0 10 -7 24 -15 31 -8 7 -15 28 -15
46 0 24 5 34 15 34 8 0 15 -6 15 -13z m485 -137 c3 -5 1 -10 -5 -10 -7 0 -10
-7 -6 -15 4 -12 -5 -15 -57 -14 l-62 1 45 11 c25 6 49 16 53 24 9 15 23 17 32
3z m1792 -232 c-2 -13 -4 -5 -4 17 -1 22 1 32 4 23 2 -10 2 -28 0 -40z m-2367
-49 c0 -11 -4 -17 -10 -14 -5 3 -10 13 -10 21 0 8 5 14 10 14 6 0 10 -9 10
-21z m40 -195 c0 -14 -4 -23 -10 -19 -5 3 -10 15 -10 26 0 10 5 19 10 19 6 0
10 -12 10 -26z m38 -91 c14 -12 14 -15 -4 -28 -35 -26 -44 -19 -44 37 0 52 0
52 16 28 10 -14 24 -31 32 -37z m2462 7 c0 -5 -4 -10 -10 -10 -5 0 -10 5 -10
10 0 6 5 10 10 10 6 0 10 -4 10 -10z m-2618 -22 c-9 -9 -15 -9 -24 0 -9 9 -7
12 12 12 19 0 21 -3 12 -12z m61 -35 c18 -9 34 -18 37 -18 3 -1 12 -4 20 -8 8
-3 40 -8 70 -12 30 -3 69 -15 87 -26 35 -22 43 -39 19 -39 -11 0 -13 -7 -6
-29 7 -26 5 -31 -26 -47 -19 -10 -34 -24 -34 -31 0 -15 -37 -26 -76 -21 -28 3
-29 5 -29 58 0 49 -2 55 -22 58 -13 2 -27 -5 -37 -19 -23 -33 -28 -18 -11 31
19 53 20 49 -10 60 -18 7 -25 17 -25 35 0 30 2 30 43 8z m-667 -288 l149 -225
125 -39 c173 -55 208 -63 233 -56 14 4 18 3 9 -3 -9 -6 4 -13 40 -24 29 -9
112 -34 183 -56 72 -22 252 -77 400 -121 149 -45 373 -113 498 -152 l228 -71
89 28 c49 15 86 32 83 37 -3 6 -1 7 6 3 6 -4 44 3 84 16 39 12 64 24 54 26
-18 4 -18 4 0 18 10 7 32 13 48 13 26 0 27 -2 10 -9 -11 -5 -15 -9 -9 -9 14
-1 192 53 499 151 121 39 247 78 280 87 33 10 149 46 258 81 190 61 198 65
218 99 11 20 75 125 142 234 l121 197 38 0 c21 0 38 -2 38 -5 0 -8 -50 -93
-135 -230 -41 -66 -98 -159 -127 -206 l-52 -86 -71 -23 c-38 -12 -176 -55
-305 -97 -129 -41 -269 -85 -310 -98 -41 -13 -158 -51 -260 -84 -102 -33 -299
-96 -438 -140 l-253 -79 -77 23 c-658 198 -936 282 -1027 310 -60 18 -202 61
-315 95 -113 34 -236 72 -275 84 l-70 22 -167 249 c-93 137 -168 252 -168 257
0 4 17 8 38 8 l39 0 149 -225z m3264 215 c0 -5 -6 -10 -14 -10 -8 0 -18 5 -21
10 -3 6 3 10 14 10 12 0 21 -4 21 -10z m-94 -54 c14 -15 20 -46 8 -46 -7 0
-54 48 -54 56 0 10 33 3 46 -10z m102 -18 c-7 -19 -38 -22 -38 -4 0 10 9 16
21 16 12 0 19 -5 17 -12z m-2678 -64 c0 -31 -23 -28 -28 4 -2 15 2 22 12 22
11 0 16 -9 16 -26z m2049 -84 c18 -22 36 -38 40 -35 5 2 15 -3 22 -12 10 -12
10 -14 2 -9 -16 9 -17 -6 -1 -22 6 -6 9 -14 6 -17 -3 -4 -23 14 -43 39 -20 25
-41 44 -45 41 -4 -2 -16 2 -26 10 -10 8 -14 15 -8 15 5 0 16 -6 24 -12 8 -7 7
-4 -3 8 -9 11 -17 24 -17 27 0 17 19 4 49 -33z m-1569 26 c0 -2 -16 -23 -35
-46 -19 -23 -33 -45 -30 -50 5 -9 -14 -28 -30 -29 -5 -1 -10 -5 -10 -11 0 -5
-4 -9 -10 -7 -13 3 -8 15 20 53 13 17 22 34 20 38 -3 3 -2 4 1 2 3 -3 17 8 31
25 21 25 43 38 43 25z m1661 -13 c13 -16 12 -17 -3 -4 -17 13 -22 21 -14 21 2
0 10 -8 17 -17z m214 -2 c-8 -13 -35 -15 -35 -2 0 5 8 11 18 13 21 5 26 2 17
-11z m-1819 -50 c11 9 14 8 14 -4 0 -8 -7 -20 -15 -27 -18 -15 -20 -35 -3 -24
7 4 8 3 4 -5 -4 -6 -11 -9 -15 -6 -5 2 -21 -14 -36 -38 -16 -23 -30 -37 -32
-30 -2 6 12 34 32 61 19 27 34 56 32 63 -2 8 -2 10 1 6 2 -4 10 -3 18 4z
m1464 -16 c0 -12 -19 -12 -23 0 -4 9 -1 12 9 8 7 -3 14 -7 14 -8z m-1370 -15
c-12 -8 -12 -12 -2 -18 10 -7 4 -24 -29 -75 -22 -37 -45 -67 -51 -67 -5 0 -6
6 -1 13 55 89 70 120 66 137 -4 15 0 20 13 20 16 0 17 -2 4 -10z m1715 -19 c8
-14 -13 -24 -33 -16 -14 5 -14 7 -2 15 19 12 27 12 35 1z m-248 -61 c2 -14 -3
-20 -17 -20 -24 0 -27 15 -4 24 9 3 12 11 8 18 -4 7 -3 10 1 5 5 -4 10 -16 12
-27z m-1396 -49 c-29 -56 -29 -59 -11 -64 13 -3 20 -14 21 -29 l0 -23 9 23
c10 24 26 29 32 10 3 -7 15 14 28 45 13 31 27 57 32 57 11 0 11 -2 -12 -56
-14 -32 -17 -51 -11 -57 7 -7 12 -5 16 5 7 18 43 17 55 -2 6 -9 12 -1 21 28 7
23 16 42 22 42 8 0 6 -20 -9 -67 -5 -17 -5 -17 6 0 9 13 15 15 31 7 10 -6 19
-8 19 -4 0 3 6 1 14 -5 11 -9 15 -6 20 14 9 34 28 32 20 -2 -4 -19 -2 -24 4
-15 7 10 12 9 23 -4 11 -15 12 -16 0 -10 -9 6 -12 4 -9 -5 3 -8 13 -14 24 -14
10 0 22 -4 25 -8 3 -5 9 10 13 33 3 22 10 39 15 36 4 -3 6 -18 4 -33 -4 -26
-2 -28 29 -27 32 1 33 0 39 -45 l6 -46 2 55 c1 30 6 62 11 70 7 10 10 -14 12
-80 2 -84 2 -87 5 -27 4 60 6 68 21 62 9 -4 27 -9 40 -10 19 -3 22 1 23 33 l1
37 13 -40 c7 -22 13 -35 14 -29 1 8 12 9 37 4 l36 -8 -5 39 c-9 65 10 53 22
-14 6 -35 11 -72 11 -83 0 -11 9 -27 20 -37 17 -14 18 -21 10 -37 -6 -11 -21
-20 -33 -20 -13 0 -28 -5 -35 -12 -9 -9 -16 -7 -32 7 -20 18 -20 18 -20 -8 0
-23 -5 -26 -50 -32 -49 -7 -75 -1 -65 15 2 4 25 11 50 14 50 8 58 25 22 45
-18 10 -28 9 -52 -3 -17 -9 -45 -16 -62 -16 -30 0 -33 3 -33 30 0 17 -3 30 -6
30 -16 0 -44 -23 -44 -35 0 -20 -39 -19 -46 0 -4 8 -11 12 -17 8 -6 -4 -8 2
-4 16 3 15 -1 24 -14 31 -10 6 -20 21 -20 33 -1 20 -2 20 -6 2 -3 -11 -9 -24
-14 -29 -14 -15 -11 -49 4 -40 8 5 8 2 -2 -9 -17 -21 -41 -22 -41 -2 0 8 -8
15 -18 15 -10 0 -23 5 -29 11 -7 7 -35 12 -63 13 -34 1 -49 5 -46 13 3 7 -13
14 -45 18 -27 4 -49 10 -49 15 0 9 -106 7 -115 -2 -4 -3 -23 5 -43 19 -26 17
-44 23 -62 18 -14 -3 -31 -5 -37 -5 -7 0 -25 2 -40 3 -32 2 -58 23 -67 55 -6
18 -4 22 16 22 13 0 40 -4 61 -9 21 -5 39 -5 43 0 7 13 44 -9 44 -26 0 -26 20
-26 30 -1 8 23 15 26 61 26 37 0 56 -5 66 -17 8 -10 12 -12 8 -6 -7 14 62 153
76 153 5 0 -4 -27 -20 -59z m1102 26 c2 5 2 2 0 -5 -5 -22 8 -36 19 -21 6 10
7 7 3 -8 -5 -17 -3 -21 7 -18 9 4 13 -5 14 -30 0 -19 -2 -35 -6 -35 -7 0 -80
133 -80 146 1 5 9 -1 19 -14 11 -12 21 -19 24 -15z m352 -6 c3 -5 1 -12 -4
-15 -5 -3 -11 1 -15 9 -6 16 9 21 19 6z m-562 -53 c8 -18 22 -57 32 -87 16
-48 16 -54 1 -69 -8 -9 -19 -12 -23 -8 -5 5 -2 11 5 13 17 6 15 23 -9 86 -16
43 -25 54 -39 50 -26 -7 -35 16 -14 32 27 20 30 19 47 -17z m444 -22 c-4 -9
-11 -16 -17 -16 -11 0 -14 33 -3 44 11 10 26 -11 20 -28z m-1827 4 c0 -5 -9
-10 -20 -10 -11 0 -20 5 -20 10 0 6 9 10 20 10 11 0 20 -4 20 -10z m75 -10 c3
-5 -1 -10 -9 -10 -9 0 -16 5 -16 10 0 6 4 10 9 10 6 0 13 -4 16 -10z m1230
-65 c10 -41 21 -72 25 -70 4 2 7 -2 7 -10 0 -20 -23 -19 -31 1 -6 15 -36 141
-36 150 0 2 4 4 9 4 5 0 17 -34 26 -75z m-1408 9 c-3 -3 -12 -4 -19 -1 -8 3
-5 6 6 6 11 1 17 -2 13 -5z m-112 -14 c8 -13 -5 -13 -25 0 -13 8 -13 10 2 10
9 0 20 -4 23 -10z m240 -10 c3 -5 1 -10 -4 -10 -6 0 -11 5 -11 10 0 6 2 10 4
10 3 0 8 -4 11 -10z m1233 -16 c17 6 21 3 19 -13 -1 -11 -3 -18 -6 -16 -2 3
-15 -2 -28 -10 -23 -15 -23 -15 -23 22 0 25 3 33 9 24 5 -8 16 -11 29 -7z
m275 -84 c14 -11 30 -20 36 -20 9 0 31 -31 31 -43 0 -3 -7 -8 -16 -11 -8 -3
-12 -2 -9 4 3 6 -5 14 -18 19 -14 6 -28 15 -32 20 -3 6 -17 11 -31 11 -17 0
-24 5 -24 20 0 13 7 20 19 20 10 0 30 -9 44 -20z m201 -13 c10 -8 15 -19 11
-30 -6 -14 -9 -14 -21 -3 -7 8 -19 16 -26 18 -6 2 -8 10 -4 16 9 15 18 15 40
-1z m-321 -19 c30 -17 38 -31 24 -40 -28 -18 -72 7 -61 35 7 20 8 20 37 5z
m-93 -53 c0 -10 -10 -15 -26 -15 -22 0 -25 2 -14 15 7 8 19 15 26 15 8 0 14
-7 14 -15z m180 5 c0 -5 -4 -10 -10 -10 -5 0 -10 5 -10 10 0 6 5 10 10 10 6 0
10 -4 10 -10z m-158 -103 c5 -8 -4 -13 -28 -15 -41 -4 -49 1 -40 24 5 12 13
14 33 9 16 -4 31 -12 35 -18z m352 -23 c9 -3 13 -10 10 -15 -6 -11 -45 -12
-70 -2 -16 6 -16 7 2 14 24 10 39 10 58 3z m-104 -49 c7 -8 19 -15 28 -15 13
0 12 -3 -3 -20 -32 -35 -62 -25 -55 19 1 8 -4 18 -12 22 -9 6 -7 9 8 9 12 0
27 -7 34 -15z m-85 -50 c0 -25 -19 -30 -39 -9 -9 9 -23 13 -31 10 -8 -3 -15
-1 -15 5 0 6 -10 8 -22 4 -13 -4 -18 -3 -11 2 6 4 35 8 65 7 45 0 53 -3 53
-19z"/>
<path d="M2275 3575 c-49 -18 -80 -34 -68 -34 27 -1 29 -5 38 -58 6 -36 4 -43
-9 -43 -35 0 -56 -37 -56 -99 0 -33 4 -71 10 -85 14 -37 44 -34 55 7 8 24 16
33 36 35 20 2 29 11 36 35 5 17 18 36 28 42 13 6 19 18 17 33 -2 12 4 30 13
39 14 13 16 28 10 80 -5 44 -3 63 5 63 6 0 8 5 5 10 -9 15 -21 12 -120 -25z
m45 -169 c0 -20 -4 -22 -27 -18 l-26 5 22 18 c29 24 31 24 31 -5z"/>
<path d="M3070 3377 l5 -92 3 84 c2 46 -1 88 -5 92 -4 5 -6 -33 -3 -84z"/>
<path d="M2867 3439 c4 -13 8 -18 11 -10 2 7 -1 18 -6 23 -8 8 -9 4 -5 -13z"/>
<path d="M3103 3380 c0 -47 2 -66 4 -42 2 23 2 61 0 85 -2 23 -4 4 -4 -43z"/>
<path d="M3182 3435 c0 -16 2 -22 5 -12 2 9 2 23 0 30 -3 6 -5 -1 -5 -18z"/>
<path d="M3212 3430 c0 -19 2 -27 5 -17 2 9 2 25 0 35 -3 9 -5 1 -5 -18z"/>
<path d="M3290 3441 c-12 -24 -13 -31 -1 -31 5 0 11 11 13 25 6 30 2 32 -12 6z"/>
<path d="M2847 3410 c9 -66 24 -106 16 -45 -3 28 -9 59 -14 70 -5 12 -6 2 -2
-25z"/>
<path d="M2963 3385 c0 -22 2 -30 4 -17 2 12 2 30 0 40 -3 9 -5 -1 -4 -23z"/>
<path d="M2992 3400 c0 -14 2 -19 5 -12 2 6 2 18 0 25 -3 6 -5 1 -5 -13z"/>
<path d="M3514 3310 c-17 -50 -27 -87 -23 -83 12 12 61 153 57 164 -2 5 -17
-32 -34 -81z"/>
<path d="M2741 3383 c-1 -6 -4 -20 -7 -30 -5 -15 -4 -15 5 -3 9 13 11 12 12
-5 0 -11 3 -15 5 -9 3 6 0 22 -5 35 -5 13 -10 19 -10 12z"/>
<path d="M3274 3346 c-3 -21 -4 -39 -1 -42 2 -3 8 11 11 32 4 20 5 38 2 41 -2
3 -8 -11 -12 -31z"/>
<path d="M3501 3363 c0 -13 -5 -23 -11 -23 -5 0 -10 -12 -9 -27 1 -28 1 -28
15 6 8 18 13 41 11 50 -3 11 -5 8 -6 -6z"/>
<path d="M2892 3350 c0 -14 2 -19 5 -12 2 6 2 18 0 25 -3 6 -5 1 -5 -13z"/>
<path d="M3173 3315 c0 -22 2 -30 4 -17 2 12 2 30 0 40 -3 9 -5 -1 -4 -23z"/>
<path d="M3195 3295 c-4 -31 -5 -58 -3 -61 3 -2 8 21 12 52 4 31 5 59 2 61 -2
3 -8 -21 -11 -52z"/>
<path d="M2523 3311 c0 -17 3 -27 7 -21 6 10 46 -68 42 -82 -1 -5 3 -8 8 -8
15 0 12 9 -24 79 -30 59 -33 61 -33 32z"/>
<path d="M2646 3310 c1 -19 3 -39 3 -43 1 -5 6 -5 11 -2 6 3 10 1 10 -6 0 -7
2 -10 5 -7 3 3 -3 25 -14 49 l-19 44 4 -35z"/>
<path d="M2681 3310 c6 -16 13 -30 15 -30 2 0 4 14 4 30 0 20 -5 30 -14 30
-12 0 -13 -6 -5 -30z"/>
<path d="M2972 3315 c0 -16 2 -22 5 -12 2 9 2 23 0 30 -3 6 -5 -1 -5 -18z"/>
<path d="M3001 3314 c1 -16 5 -40 9 -54 6 -17 7 -9 3 25 -6 56 -14 74 -12 29z"/>
<path d="M3302 3310 c0 -14 2 -19 5 -12 2 6 2 18 0 25 -3 6 -5 1 -5 -13z"/>
<path d="M3592 3295 c-17 -37 -14 -45 4 -12 9 16 14 31 11 33 -2 2 -9 -7 -15
-21z"/>
<path d="M2590 3301 c0 -6 4 -13 10 -16 6 -3 7 1 4 9 -7 18 -14 21 -14 7z"/>
<path d="M2571 3295 c0 -5 6 -21 14 -35 8 -14 14 -20 14 -15 0 6 -6 21 -14 35
-8 14 -14 21 -14 15z"/>
<path d="M3700 3286 c0 -8 -3 -23 -6 -33 -3 -10 2 -7 10 7 18 30 20 40 6 40
-5 0 -10 -6 -10 -14z"/>
<path d="M3031 3274 c0 -11 3 -14 6 -6 3 7 2 16 -1 19 -3 4 -6 -2 -5 -13z"/>
<path d="M2466 3257 c3 -10 9 -15 12 -12 3 3 0 11 -7 18 -10 9 -11 8 -5 -6z"/>
<path d="M2700 3265 c0 -5 5 -17 10 -25 5 -8 10 -10 10 -5 0 6 -5 17 -10 25
-5 8 -10 11 -10 5z"/>
<path d="M3566 3233 c-6 -14 -5 -15 5 -6 7 7 10 15 7 18 -3 3 -9 -2 -12 -12z"/>
<path d="M2331 3219 c-1 -9 7 -23 17 -30 15 -12 16 -12 6 1 -6 8 -14 22 -17
30 -5 13 -6 12 -6 -1z"/>
<path d="M2490 3216 c0 -8 4 -17 9 -20 5 -4 7 3 4 14 -6 23 -13 26 -13 6z"/>
<path d="M2611 3210 c14 -31 19 -36 19 -24 0 6 -7 19 -16 30 -14 18 -14 18 -3
-6z"/>
<path d="M2936 3223 c-3 -3 -6 -23 -6 -44 0 -21 -5 -39 -12 -42 -7 -2 1 -2 17
1 17 3 84 8 150 12 l120 7 -95 3 c-65 2 -83 5 -58 9 47 7 39 25 -17 39 -77 19
-92 22 -99 15z"/>
<path d="M3687 3181 c-4 -17 -3 -21 5 -13 5 5 8 16 6 23 -3 8 -7 3 -11 -10z"/>
<path d="M3798 3168 c-28 -43 -40 -71 -29 -64 11 7 55 86 47 86 -2 0 -10 -10
-18 -22z"/>
<path d="M2270 3146 c0 -2 8 -10 18 -17 15 -13 16 -12 3 4 -13 16 -21 21 -21
13z"/>
<path d="M3310 3130 c34 -11 60 -11 35 0 -11 5 -29 8 -40 8 -16 0 -15 -2 5 -8z"/>
<path d="M2262 3110 c7 -11 17 -20 22 -20 5 0 1 9 -9 20 -10 11 -20 20 -22 20
-2 0 2 -9 9 -20z"/>
<path d="M2510 3120 c0 -5 5 -10 10 -10 6 0 10 5 10 10 0 6 -4 10 -10 10 -5 0
-10 -4 -10 -10z"/>
<path d="M2815 3110 c-13 -6 -15 -9 -5 -9 8 0 22 4 30 9 18 12 2 12 -25 0z"/>
<path d="M3098 3113 c6 -2 18 -2 25 0 6 3 1 5 -13 5 -14 0 -19 -2 -12 -5z"/>
<path d="M3384 3108 c10 -6 22 -6 26 -2 5 5 -3 10 -18 11 -22 1 -24 0 -8 -9z"/>
<path d="M2300 3106 c0 -2 8 -10 18 -17 15 -13 16 -12 3 4 -13 16 -21 21 -21
13z"/>
<path d="M2955 3101 c-25 -5 -27 -8 -12 -14 11 -4 24 -4 30 0 5 3 24 10 41 14
l31 7 -30 0 c-16 0 -43 -3 -60 -7z"/>
<path d="M3163 3103 c15 -2 39 -2 55 0 15 2 2 4 -28 4 -30 0 -43 -2 -27 -4z"/>
<path d="M2747 3089 c7 -7 15 -10 18 -7 3 3 -2 9 -12 12 -14 6 -15 5 -6 -5z"/>
<path d="M3260 3090 c19 -13 30 -13 30 0 0 6 -10 10 -22 10 -19 0 -20 -2 -8
-10z"/>
<path d="M3420 3096 c0 -2 9 -6 20 -9 11 -3 18 -1 14 4 -5 9 -34 13 -34 5z"/>
<path d="M2855 3075 c-43 -14 -28 -19 24 -9 17 4 31 10 31 15 0 11 -5 11 -55
-6z"/>
<path d="M3297 3083 c-12 -12 -7 -74 7 -89 8 -7 16 -19 19 -26 6 -17 43 4 39
22 -1 7 2 18 8 25 6 7 8 20 4 29 -4 10 -1 16 7 17 8 0 4 4 -9 9 -12 5 -30 6
-39 3 -11 -4 -14 -3 -9 5 8 13 -16 17 -27 5z"/>
<path d="M3781 3054 c-6 -15 -9 -29 -7 -32 3 -2 10 8 16 23 14 36 7 43 -9 9z"/>
<path d="M2345 3050 c3 -5 8 -10 11 -10 2 0 4 5 4 10 0 6 -5 10 -11 10 -5 0
-7 -4 -4 -10z"/>
<path d="M2662 3040 c-18 -11 -38 -20 -46 -20 -7 0 -13 -6 -13 -14 0 -9 16 -3
49 17 41 26 55 37 46 37 -2 0 -18 -9 -36 -20z"/>
<path d="M2728 3024 c-38 -19 -68 -37 -68 -39 0 -3 10 -1 21 6 17 9 24 8 31
-2 8 -11 9 -11 5 2 -4 11 6 21 29 33 40 19 48 20 39 6 -3 -6 4 -10 17 -10 21
1 21 2 5 11 -9 6 -15 14 -12 20 8 12 9 13 -67 -27z"/>
<path d="M3065 3029 c-9 -13 3 -80 17 -96 16 -19 46 -15 53 7 3 10 1 37 -5 60
-9 33 -15 40 -35 40 -13 0 -27 -5 -30 -11z"/>
<path d="M3460 3030 c8 -5 20 -10 25 -10 6 0 3 5 -5 10 -8 5 -19 10 -25 10 -5
0 -3 -5 5 -10z"/>
<path d="M2736 3001 c-3 -5 5 -11 19 -13 17 -4 25 -1 25 8 0 15 -36 19 -44 5z"/>
<path d="M3537 2989 c7 -7 15 -10 18 -7 3 3 -2 9 -12 12 -14 6 -15 5 -6 -5z"/>
<path d="M3796 2921 c-8 -12 21 -34 34 -26 17 11 11 35 -9 35 -11 0 -22 -4
-25 -9z"/>
<path d="M3214 2715 c-4 -15 0 -38 8 -56 14 -28 16 -29 32 -14 16 17 21 51 10
79 -10 26 -43 19 -50 -9z"/>
<path d="M3290 2630 c0 -27 5 -50 10 -50 6 0 10 23 10 50 0 28 -4 50 -10 50
-5 0 -10 -22 -10 -50z"/>
<path d="M3460 2490 l0 -100 33 1 c30 2 30 2 5 6 l-28 4 0 90 0 89 36 0 c27 0
35 -3 31 -14 -4 -11 -1 -13 10 -9 12 5 14 3 8 -7 -5 -8 -4 -11 2 -7 6 4 13
-10 17 -35 4 -22 9 -38 13 -35 11 11 -8 78 -28 98 -12 12 -33 19 -59 19 l-40
0 0 -100z"/>
<path d="M4012 2463 c1 -104 3 -116 8 -63 4 45 8 60 14 48 5 -11 19 -18 37
-18 19 0 29 -5 29 -15 0 -21 12 -19 34 6 15 18 17 34 14 82 -5 72 -21 87 -90
87 l-48 0 2 -127z"/>
<path d="M3567 2441 c-4 -17 -3 -21 5 -13 5 5 8 16 6 23 -3 8 -7 3 -11 -10z"/>
<path d="M4128 2385 c-8 -19 -11 -32 -6 -29 10 7 31 55 25 60 -2 2 -10 -12
-19 -31z"/>
<path d="M3665 2339 c-4 -6 -4 -13 -1 -16 3 -4 6 0 6 7 0 9 7 7 21 -6 22 -19
22 -19 8 4 -15 24 -24 27 -34 11z"/>
<path d="M3721 2260 c14 -31 19 -36 19 -24 0 6 -7 19 -16 30 -14 18 -14 18 -3
-6z"/>
<path d="M3493 2253 c9 -2 25 -2 35 0 9 3 1 5 -18 5 -19 0 -27 -2 -17 -5z"/>
<path d="M2438 2233 c23 -2 61 -2 85 0 23 2 4 4 -43 4 -47 0 -66 -2 -42 -4z"/>
<path d="M2400 2185 c0 -31 3 -35 25 -35 15 0 25 6 25 15 0 8 15 19 33 24 17
5 25 10 17 10 -13 1 -13 2 0 11 11 7 -2 10 -42 10 l-58 0 0 -35z"/>
<path d="M3741 2204 c0 -11 3 -14 6 -6 3 7 2 16 -1 19 -3 4 -6 -2 -5 -13z"/>
<path d="M4231 2194 c0 -11 3 -14 6 -6 3 7 2 16 -1 19 -3 4 -6 -2 -5 -13z"/>
<path d="M3593 2140 c0 -25 2 -35 4 -22 2 12 2 32 0 45 -2 12 -4 2 -4 -23z"/>
<path d="M3751 2130 c-1 -30 -4 -66 -6 -80 -5 -21 -4 -22 4 -5 8 19 9 19 13
-5 3 -15 6 -8 6 20 0 25 -3 63 -7 85 l-9 40 -1 -55z"/>
<path d="M4014 2040 c0 -80 2 -112 3 -72 2 39 2 105 0 145 -1 39 -3 7 -3 -73z"/>
<path d="M4240 2164 c1 -18 48 -189 49 -176 1 15 -38 175 -45 181 -2 2 -4 0
-4 -5z"/>
<path d="M4091 2134 c0 -11 3 -14 6 -6 3 7 2 16 -1 19 -3 4 -6 -2 -5 -13z"/>
<path d="M4101 2094 c0 -11 3 -14 6 -6 3 7 2 16 -1 19 -3 4 -6 -2 -5 -13z"/>
<path d="M2408 2033 c6 -2 18 -2 25 0 6 3 1 5 -13 5 -14 0 -19 -2 -12 -5z"/>
<path d="M3746 1993 c-6 -14 -5 -15 5 -6 7 7 10 15 7 18 -3 3 -9 -2 -12 -12z"/>
<path d="M4131 1964 c0 -11 3 -14 6 -6 3 7 2 16 -1 19 -3 4 -6 -2 -5 -13z"/>
<path d="M4296 1933 l6 -42 -68 -4 -69 -3 76 -1 76 0 -9 41 c-12 54 -21 61
-12 9z"/>
<path d="M2247 1917 c-3 -8 -1 -20 4 -28 6 -10 9 -7 9 14 0 29 -5 35 -13 14z"/>
<path d="M2196 1911 c-8 -13 4 -42 15 -35 12 7 12 44 0 44 -6 0 -12 -4 -15 -9z"/>
<path d="M2273 1884 c6 -7 319 -6 326 1 2 3 -71 5 -164 5 -93 0 -166 -3 -162
-6z"/>
<path d="M3923 1883 c15 -2 39 -2 55 0 15 2 2 4 -28 4 -30 0 -43 -2 -27 -4z"/>
<path d="M4190 1850 c0 -5 5 -10 10 -10 6 0 10 5 10 10 0 6 -4 10 -10 10 -5 0
-10 -4 -10 -10z"/>
<path d="M2238 1797 c-3 -13 -2 -32 2 -42 5 -16 10 -13 28 17 28 44 27 48 -2
48 -17 0 -25 -7 -28 -23z"/>
<path d="M4270 1760 c0 -5 5 -10 10 -10 6 0 10 5 10 10 0 6 -4 10 -10 10 -5 0
-10 -4 -10 -10z"/>
<path d="M4128 1733 c6 -2 18 -2 25 0 6 3 1 5 -13 5 -14 0 -19 -2 -12 -5z"/>
<path d="M4016 1674 c-19 -18 -19 -20 -6 -45 11 -20 50 -27 50 -8 0 8 13 10
36 6 33 -6 35 -5 18 8 -10 7 -22 12 -25 9 -3 -2 -4 9 -2 24 2 20 1 23 -5 9 -7
-17 -9 -17 -21 -3 -17 20 -25 20 -45 0z"/>
<path d="M4035 1572 c27 -28 50 -52 51 -52 0 0 1 14 2 31 1 26 -2 30 -23 27
-14 -2 -35 7 -52 22 -15 13 -6 1 22 -28z"/>
<path d="M3619 1563 c-13 -16 -12 -17 4 -4 9 7 17 15 17 17 0 8 -8 3 -21 -13z"/>
<path d="M3574 1534 c-18 -14 -18 -15 4 -4 12 6 22 13 22 15 0 8 -5 6 -26 -11z"/>
<path d="M3417 1515 c-33 -29 -31 -30 24 -9 29 12 37 19 27 25 -18 12 -19 11
-51 -16z"/>
<path d="M2830 1486 c0 -2 11 -6 25 -8 13 -3 22 -1 19 3 -5 9 -44 13 -44 5z"/>
<path d="M3305 1470 c-4 -7 3 -8 22 -4 38 9 42 14 10 14 -14 0 -29 -5 -32 -10z"/>
<path d="M3023 1443 c15 -2 37 -2 50 0 12 2 0 4 -28 4 -27 0 -38 -2 -22 -4z"/>
<path d="M3118 1443 c12 -2 30 -2 40 0 9 3 -1 5 -23 4 -22 0 -30 -2 -17 -4z"/>
<path d="M2848 1433 c7 -3 16 -2 19 1 4 3 -2 6 -13 5 -11 0 -14 -3 -6 -6z"/>
<path d="M3278 1413 c7 -3 16 -2 19 1 4 3 -2 6 -13 5 -11 0 -14 -3 -6 -6z"/>
<path d="M3218 1403 c6 -2 18 -2 25 0 6 3 1 5 -13 5 -14 0 -19 -2 -12 -5z"/>
<path d="M951 2599 c-37 -14 -42 -50 -39 -300 3 -217 5 -239 22 -258 22 -24
64 -27 92 -7 18 13 19 30 22 266 2 210 1 256 -12 275 -17 25 -52 35 -85 24z"/>
<path d="M5131 2490 c-1 -8 -10 -73 -21 -145 -10 -71 -17 -131 -16 -133 2 -2
21 -2 43 0 l38 3 -21 145 c-12 80 -22 138 -23 130z"/>
<path d="M2128 1733 c6 -2 18 -2 25 0 6 3 1 5 -13 5 -14 0 -19 -2 -12 -5z"/>
<path d="M2756 1153 c-6 -14 -5 -15 5 -6 7 7 10 15 7 18 -3 3 -9 -2 -12 -12z"/>
<path d="M3202 1120 c0 -19 2 -27 5 -17 2 9 2 25 0 35 -3 9 -5 1 -5 -18z"/>
<path d="M3282 1110 c0 -14 2 -19 5 -12 2 6 2 18 0 25 -3 6 -5 1 -5 -13z"/>
<path d="M6000 4575 c0 -3 18 -17 40 -31 46 -31 51 -50 15 -64 -28 -11 -33
-35 -10 -44 19 -7 9 -33 -16 -41 -32 -10 -18 -37 26 -50 22 -6 46 -10 52 -8
19 7 64 -39 61 -62 -2 -16 3 -21 31 -23 19 -2 41 -11 48 -20 10 -14 12 7 13
121 0 156 1 154 -86 200 -40 21 -66 27 -113 27 -33 0 -61 -2 -61 -5z"/>
<path d="M6240 4565 c0 -8 5 -15 10 -15 6 0 10 7 10 15 0 8 -4 15 -10 15 -5 0
-10 -7 -10 -15z"/>
<path d="M5637 4523 c-11 -10 -8 -53 3 -53 6 0 10 14 10 30 0 31 -2 35 -13 23z"/>
<path d="M5642 4437 c-20 -23 -24 -63 -8 -76 12 -10 17 -9 25 8 13 24 15 81 2
81 -5 0 -13 -6 -19 -13z"/>
<path d="M5630 4310 c0 -5 5 -10 10 -10 6 0 10 5 10 10 0 6 -4 10 -10 10 -5 0
-10 -4 -10 -10z"/>
<path d="M6090 4307 c0 -19 16 -31 24 -18 3 5 -1 14 -9 21 -12 10 -15 10 -15
-3z"/>
<path d="M5271 4024 c0 -11 3 -14 6 -6 3 7 2 16 -1 19 -3 4 -6 -2 -5 -13z"/>
<path d="M5273 3910 c0 -47 2 -66 4 -42 2 23 2 61 0 85 -2 23 -4 4 -4 -43z"/>
<path d="M6082 3846 c-38 -35 -82 -48 -82 -24 0 6 -3 9 -6 5 -3 -3 -2 -11 2
-19 6 -10 9 -74 5 -131 -1 -4 -36 -5 -78 -3 -145 7 -272 -64 -319 -179 -11
-25 -25 -45 -31 -45 -27 0 -11 -30 35 -63 156 -115 402 -197 588 -197 l64 0 0
285 c0 247 -2 285 -15 285 -9 0 -15 9 -15 25 0 20 -15 67 -27 84 -1 2 -20 6
-42 8 -34 4 -44 0 -79 -31z m33 -66 c-5 -8 -11 -8 -17 -2 -6 6 -7 16 -3 22 5
8 11 8 17 2 6 -6 7 -16 3 -22z"/>
<path d="M5473 3524 c-8 -22 10 -36 43 -32 l29 3 -22 23 c-27 26 -41 28 -50 6z"/>
</g>
</svg>
